<svg xmlns="http://www.w3.org/2000/svg" width="22.451" height="21.67" viewBox="0 0 22.451 21.67">
  <g id="gallery" transform="translate(-0.25 -0.08)">
    <path id="Path_33" data-name="Path 33" d="M7,7.75A1.25,1.25,0,1,0,8.25,9,1.25,1.25,0,0,0,7,7.75ZM4.25,9A2.75,2.75,0,1,1,7,11.75,2.75,2.75,0,0,1,4.25,9Z" fill="#74167b" fill-rule="evenodd"/>
    <path id="Path_34" data-name="Path 34" d="M10.146,15.6a33.154,33.154,0,0,0-3.931,5.763.75.75,0,1,1-1.307-.736,34.6,34.6,0,0,1,4.12-6.027,10.289,10.289,0,0,1,4.132-3.043,5.573,5.573,0,0,1,4.319.257,12.239,12.239,0,0,1,4.1,3.5.75.75,0,0,1-1.163.948,10.793,10.793,0,0,0-3.575-3.085,4.077,4.077,0,0,0-3.194-.2A8.838,8.838,0,0,0,10.146,15.6Z" fill="#74167b" fill-rule="evenodd"/>
    <path id="Path_35" data-name="Path 35" d="M1.641,3.641A4.75,4.75,0,0,1,5,2.25h7.28a.75.75,0,0,1,0,1.5H5A3.25,3.25,0,0,0,1.75,7V17A3.25,3.25,0,0,0,5,20.25H17A3.25,3.25,0,0,0,20.25,17V12a.75.75,0,0,1,1.5,0v5A4.75,4.75,0,0,1,17,21.75H5A4.75,4.75,0,0,1,.25,17V7A4.75,4.75,0,0,1,1.641,3.641Z" fill="#74167b" fill-rule="evenodd"/>
    <path id="Path_36" data-name="Path 36" d="M18.75.08a.75.75,0,0,1,.75.75v8a.75.75,0,0,1-1.5,0v-8a.75.75,0,0,1,.75-.75Z" fill="#73bad9" fill-rule="evenodd"/>
    <path id="Path_37" data-name="Path 37" d="M18.221.3a.75.75,0,0,1,1.061,0l3.2,3.2A.75.75,0,0,1,21.421,4.56l-2.67-2.67-2.67,2.67A.75.75,0,0,1,15.021,3.5Z" fill="#73bad9" fill-rule="evenodd"/>
  </g>
</svg>
