<svg xmlns="http://www.w3.org/2000/svg" width="41.419" height="42.582" viewBox="0 0 41.419 42.582">
  <g id="Level_1" data-name="Level 1" transform="translate(-2.3 -1.6)">
    <path id="Path_38" data-name="Path 38" d="M49.753,7.217a.453.453,0,0,0-.653.2c-3.07,5.029-8.621,7.119-13.976,12.931.588-1.372-1.241-1.7-2.025.2a.893.893,0,0,0,.065.914c-.653-.2-.588-1.11-.327-1.763,1.045-3.07,5.355-4.376,6.466-7.837a.475.475,0,0,0-.914-.261c-.588,1.959-2.678,3.266-4.115,4.637a5.977,5.977,0,0,0,.065-1.045A8.185,8.185,0,0,0,36.3,12.637a.5.5,0,0,0-.914-.392A7.11,7.11,0,0,1,33.491,14.6a.593.593,0,0,0-.2.457,4.782,4.782,0,0,1-.98,3.331.5.5,0,0,0-.131.327c-.065.065-.131.131-.131.2-.98,2.678-1.241,4.7-2.025,5.486-.2.2-.588.522-.98.327-.327-.131-.522-.653-.522-1.176A61.53,61.53,0,0,1,31.14,11.527c.718-2.416,1.176-3,4.245-3.788,4.7-1.306,5.943-1.567,9.339-4.964a.5.5,0,0,0,.131-.327.524.524,0,0,0,.065-.522A.766.766,0,0,0,44.2,1.6c-1.11.261-3,3.266-7.641,4.31-1.567.327-3.2.392-4.506,1.372-2.155,1.633-2.547,4.7-3,7.315-.718,4.049-1.959,8.033-1.5,9.47a1.709,1.709,0,0,0,3.07.98c.718-.718.914-1.7,1.372-3.07a2.034,2.034,0,0,0,.588.457v.2a19.941,19.941,0,0,0,1.763,3.984c.392.653.914,1.176,1.7,1.045a1.734,1.734,0,0,0,1.372-1.437c.2-.784.065-1.045-.98-5.943.065-.131.2-.2.261-.327,1.306.718,5.16,2.874,6.6,2.743a1.522,1.522,0,0,0,1.176-2.547,1.437,1.437,0,0,0,.522-2.155,1.5,1.5,0,0,0-.98-.718,7.266,7.266,0,0,1-2.612-1.437c3.07-2.351,6.27-4.572,8.229-7.9.457-.261.392-.588.131-.718ZM36.626,25.961c-.065.327-.327.653-.588.653-.065,0-.327.065-.718-.588a16.33,16.33,0,0,1-1.633-3.592,3.263,3.263,0,0,0,2.025-1.372C36.691,25.242,36.756,25.438,36.626,25.961Zm7.445-4.637a.612.612,0,0,1-.588.327c-1.11.065-4.833-1.959-5.813-2.482a13.641,13.641,0,0,1,1.437-1.306,6.658,6.658,0,0,0,2.939,1.829,12.155,12.155,0,0,1,1.633.653C43.941,20.605,44.2,21,44.071,21.324Zm-.065-3.135a2.084,2.084,0,0,1,.457.392c.261.392-.261.849-.588.849a5.99,5.99,0,0,0-1.5-.588,5.839,5.839,0,0,1-2.547-1.567c.327-.261.718-.588,1.11-.849A8.253,8.253,0,0,0,44.006,18.189Z" transform="translate(-8.724)" fill="#f5bf8e"/>
    <path id="Path_39" data-name="Path 39" d="M2.822,61.16a.515.515,0,0,0,.522-.522,3.706,3.706,0,0,1,6.27-2.678A.473.473,0,0,0,10.4,57.5a5.024,5.024,0,0,1,1.894-4.964,5.145,5.145,0,0,1,5.29-.392A5.258,5.258,0,0,1,20.2,56.784a.5.5,0,0,0,.849.392,8.208,8.208,0,0,1,3.4-2.547c1.176-.327,2.808.131,3.07,1.306a.477.477,0,0,0,.914.065,5.091,5.091,0,0,1,5.225-2.743,4.991,4.991,0,0,1,4.049,4.31.5.5,0,0,0,.98.065c.261-.98,1.829-1.045,2.547-.392a5.459,5.459,0,0,1,1.5,3.331.5.5,0,0,0,.98-.2,6.735,6.735,0,0,0-1.894-3.919,2.942,2.942,0,0,0-3.461-.131,6.112,6.112,0,0,0-4.637-4.049A6.05,6.05,0,0,0,27.9,54.76a3.708,3.708,0,0,0-3.853-1.11,7.745,7.745,0,0,0-3,1.959,6.189,6.189,0,0,0-3-4.376,6.011,6.011,0,0,0-6.335.457,6.158,6.158,0,0,0-2.416,4.833,4.93,4.93,0,0,0-4.18-.2A4.729,4.729,0,0,0,2.3,60.638a.515.515,0,0,0,.522.522Z" transform="translate(0 -16.978)" fill="#74167b"/>
    <path id="Path_40" data-name="Path 40" d="M34.929,41.442a11.623,11.623,0,0,0-.784-1.894.136.136,0,0,0-.261,0,7.3,7.3,0,0,0-.784,2.286c0,.718.784,1.372,1.437.914A1.393,1.393,0,0,0,34.929,41.442Z" transform="translate(-10.684 -13.13)" fill="#73bad9"/>
    <path id="Path_41" data-name="Path 41" d="M40.084,45.148a7.3,7.3,0,0,0-.784,2.286.954.954,0,0,0,1.5.849,1.357,1.357,0,0,0,.327-1.241,11.622,11.622,0,0,0-.784-1.894c-.065-.131-.261-.131-.261,0Z" transform="translate(-12.835 -15.073)" fill="#73bad9"/>
    <path id="Path_42" data-name="Path 42" d="M26.284,43.148a7.3,7.3,0,0,0-.784,2.286.954.954,0,0,0,1.5.849,1.357,1.357,0,0,0,.327-1.241,11.622,11.622,0,0,0-.784-1.894c0-.131-.2-.131-.261,0Z" transform="translate(-8.048 -14.379)" fill="#73bad9"/>
    <path id="Path_43" data-name="Path 43" d="M32.884,48.76a7.3,7.3,0,0,0-.784,2.286.954.954,0,0,0,1.5.849,1.357,1.357,0,0,0,.327-1.241,11.622,11.622,0,0,0-.784-1.894C33.08,48.695,32.949,48.629,32.884,48.76Z" transform="translate(-10.338 -16.333)" fill="#73bad9"/>
    <path id="Path_44" data-name="Path 44" d="M56.282,50.955c.849-.784.522-1.959-.457-2.025a1.376,1.376,0,0,0-2.547.392,1.307,1.307,0,0,0,.327,1.241C53.474,51.346,55.237,51.934,56.282,50.955Zm-1.829-1.7a.426.426,0,0,1,.588.327.477.477,0,0,0,.718.327c0,.327-.784.784-1.372.392a.48.48,0,0,0-.131-.392C54.192,49.714,54.258,49.322,54.454,49.257Z" transform="translate(-17.67 -16.177)" fill="#73bad9"/>
    <path id="Path_45" data-name="Path 45" d="M21.5,60.322v.2a.515.515,0,0,0,.522.522.481.481,0,0,0,.522-.522v-.2a.522.522,0,1,0-1.045,0Z" transform="translate(-6.66 -20.189)" fill="#73bad9"/>
    <path id="Path_46" data-name="Path 46" d="M44.085,64.173l-.261.065a.506.506,0,0,0,.131.98c.131,0,.2-.065.392-.131a.539.539,0,0,0,.327-.653c0-.261-.327-.392-.588-.261Z" transform="translate(-14.289 -21.689)" fill="#73bad9"/>
    <path id="Path_47" data-name="Path 47" d="M47.061,58.172a.453.453,0,0,0-.2.653l.065.131a.437.437,0,0,0,.457.261.508.508,0,0,0,.457-.718l-.065-.131c-.2-.2-.522-.327-.718-.2Z" transform="translate(-15.437 -19.606)" fill="#73bad9"/>
    <path id="Path_48" data-name="Path 48" d="M56.988,62.6h-.065a.515.515,0,0,0-.522.522.481.481,0,0,0,.522.522h.065a.522.522,0,0,0,0-1.045Z" transform="translate(-18.767 -21.161)" fill="#73bad9"/>
    <path id="Path_49" data-name="Path 49" d="M34.722,62.4a.515.515,0,0,0-.522.522.481.481,0,0,0,.522.522h.065a.515.515,0,0,0,.522-.522.481.481,0,0,0-.522-.522Z" transform="translate(-11.066 -21.091)" fill="#73bad9"/>
  </g>
</svg>
