<svg xmlns="http://www.w3.org/2000/svg" width="22" height="22.025" viewBox="0 0 22 22.025">
  <g id="Attach" transform="translate(-0.343 -0.001)">
    <g id="_x34__17_" transform="translate(0.343 0.001)">
      <g id="Group_123" data-name="Group 123" transform="translate(0 0)">
        <path id="Path_88" data-name="Path 88" d="M21.225,8.018,10.031,19.087a4.787,4.787,0,0,1-6.717,0,4.66,4.66,0,0,1,0-6.642L13.389,2.483a3.191,3.191,0,0,1,4.477,0,3.106,3.106,0,0,1,0,4.428L7.792,16.873a1.6,1.6,0,0,1-2.239,0,1.554,1.554,0,0,1,0-2.214L14.508,5.8,13.389,4.7,4.434,13.552a3.106,3.106,0,0,0,0,4.428,3.191,3.191,0,0,0,4.477,0L18.986,8.018a4.66,4.66,0,0,0,0-6.642,4.787,4.787,0,0,0-6.717,0L1.636,11.892l.039.039A6.208,6.208,0,0,0,2.2,20.194a6.382,6.382,0,0,0,8.357.515l.039.039L22.344,9.125Z" transform="translate(-0.343 -0.001)" fill="#8e8e8e"/>
      </g>
    </g>
  </g>
</svg>
