<svg id="location" xmlns="http://www.w3.org/2000/svg" width="29.691" height="29.691" viewBox="0 0 29.691 29.691">
  <path id="Path_104" data-name="Path 104" d="M27.159,357.223a.87.87,0,1,0-.838,1.525c1.036.569,1.63,1.2,1.63,1.731,0,.65-.92,1.656-3.5,2.534a31.059,31.059,0,0,1-9.6,1.345,31.059,31.059,0,0,1-9.6-1.345c-2.583-.878-3.5-1.884-3.5-2.534,0-.531.594-1.162,1.63-1.731a.87.87,0,0,0-.838-1.525C1.377,357.857,0,358.937,0,360.479c0,1.182.813,2.866,4.683,4.181A32.816,32.816,0,0,0,14.846,366.1a32.816,32.816,0,0,0,10.162-1.437c3.871-1.315,4.683-3,4.683-4.181C29.691,358.937,28.314,357.857,27.159,357.223Z" transform="translate(0 -336.405)" fill="#73bad9"/>
  <path id="Path_105" data-name="Path 105" d="M89.866,346.055a28.262,28.262,0,0,0,13.135,0c2.16-.61,3.256-1.494,3.256-2.625s-1.1-2.015-3.256-2.625c-.48-.135-1-.254-1.556-.356q-.452.78-.947,1.607c.614.092,1.19.205,1.713.338a4.442,4.442,0,0,1,2.29,1.036,4.44,4.44,0,0,1-2.29,1.036,24.02,24.02,0,0,1-5.48.621c-.1.007-.2.011-.3.011s-.2,0-.3-.011a24.019,24.019,0,0,1-5.48-.621,4.44,4.44,0,0,1-2.29-1.036,4.442,4.442,0,0,1,2.29-1.036c.523-.133,1.1-.246,1.713-.338q-.495-.826-.947-1.607c-.555.1-1.076.22-1.556.356-2.16.61-3.256,1.494-3.256,2.625S87.705,345.444,89.866,346.055Z" transform="translate(-81.587 -320.705)" fill="#73bad9"/>
  <path id="Path_106" data-name="Path 106" d="M124.646,22.653a2.19,2.19,0,0,0,1.882-1.055c2.831-4.631,6.2-10.734,6.2-13.512a8.086,8.086,0,0,0-16.173,0c0,2.777,3.374,8.881,6.2,13.512A2.19,2.19,0,0,0,124.646,22.653ZM121.4,7.531a3.25,3.25,0,1,1,3.25,3.25A3.254,3.254,0,0,1,121.4,7.531Z" transform="translate(-109.801)" fill="#74167b"/>
</svg>
