<svg xmlns="http://www.w3.org/2000/svg" width="26.894" height="14.032" viewBox="0 0 26.894 14.032">
  <g id="check-mark_1_" data-name="check-mark (1)" transform="translate(-677.5 -1309.999)">
    <g id="Group_153" data-name="Group 153" transform="translate(677.5 1310)">
      <path id="Path_107" data-name="Path 107" d="M685.685,1324.045a1.166,1.166,0,0,1-.827-.343l-7.016-7.016a1.169,1.169,0,0,1,1.654-1.654l6.189,6.189,10.866-10.866a1.169,1.169,0,0,1,1.654,1.654L686.512,1323.7A1.166,1.166,0,0,1,685.685,1324.045Z" transform="translate(-677.5 -1310.013)" fill="#74167b"/>
    </g>
    <g id="Group_154" data-name="Group 154" transform="translate(690.362 1309.999)">
      <path id="Path_108" data-name="Path 108" d="M1943.669,1324.031a1.169,1.169,0,0,1-.827-2l11.693-11.693a1.169,1.169,0,0,1,1.654,1.654l-11.693,11.693A1.166,1.166,0,0,1,1943.669,1324.031Z" transform="translate(-1942.5 -1309.999)" fill="#74167b"/>
    </g>
  </g>
</svg>
